<?xml version="1.0" encoding="UTF-8" standalone="no"?>
<svg
   xmlns:dc="http://purl.org/dc/elements/1.1/"
   xmlns:cc="http://creativecommons.org/ns#"
   xmlns:rdf="http://www.w3.org/1999/02/22-rdf-syntax-ns#"
   xmlns:svg="http://www.w3.org/2000/svg"
   xmlns="http://www.w3.org/2000/svg"
   xmlns:sodipodi="http://sodipodi.sourceforge.net/DTD/sodipodi-0.dtd"
   xmlns:inkscape="http://www.inkscape.org/namespaces/inkscape"
   enable-background="new 0 0 512 512"
   height="512px"
   id="Layer_1"
   version="1.1"
   viewBox="0 0 512 512"
   width="512px"
   xml:space="preserve"
   inkscape:version="0.92.3 (2405546, 2018-03-11)"
   sodipodi:docname="wasta-menu.svg"><metadata
     id="metadata9"><rdf:RDF><cc:Work
         rdf:about=""><dc:format>image/svg+xml</dc:format><dc:type
           rdf:resource="http://purl.org/dc/dcmitype/StillImage" /><dc:title /></cc:Work></rdf:RDF></metadata><defs
     id="defs7" /><sodipodi:namedview
     pagecolor="#ffffff"
     bordercolor="#666666"
     borderopacity="1"
     objecttolerance="10"
     gridtolerance="10"
     guidetolerance="10"
     inkscape:pageopacity="0"
     inkscape:pageshadow="2"
     inkscape:window-width="1600"
     inkscape:window-height="900"
     id="namedview5"
     showgrid="false"
     inkscape:zoom="0.4609375"
     inkscape:cx="-4.1783308"
     inkscape:cy="366.72382"
     inkscape:window-x="0"
     inkscape:window-y="0"
     inkscape:window-maximized="0"
     inkscape:current-layer="Layer_1" /><path
     d="m 423.0742,240.13436 c 0,0 -6.17319,-2.3216 -24.03267,-3.96915 -21.83725,-2.01877 -28.42481,-10.20343 -35.68841,-20.39289 h -0.14608 c -0.90447,-2.42188 -1.87334,-4.81318 -2.93985,-7.15602 l 0.0844,-0.0844 c -2.07322,-12.3384 -3.1955,-22.7882 10.81902,-39.65753 11.45519,-13.79007 14.18782,-19.80123 14.18782,-19.80123 -2.68812,-6.82198 -9.15153,-13.28404 -9.15153,-13.28404 0,0 -6.46537,-6.46405 -13.28405,-9.14821 0,0 -6.01113,2.72533 -19.80119,14.18517 -16.86938,14.01319 -27.31982,12.88761 -39.65754,10.81903 l -0.085,0.0836 c -2.34017,-1.06582 -4.72818,-2.03071 -7.15534,-2.93982 v -0.14211 c -10.19015,-7.26093 -18.37414,-13.8558 -20.39357,-35.69306 -1.65023,-17.85085 -3.96847,-24.032005 -3.96847,-24.032005 -6.72637,-2.925232 -15.86397,-2.925232 -15.86397,-2.925232 0,0 -9.14157,0 -15.8626,2.925232 0,0 -2.32294,6.181825 -3.97049,24.032005 -2.01943,21.83726 -10.20807,28.43213 -20.39289,35.69306 v 0.14211 c -2.42187,0.90911 -4.8145,1.87332 -7.156,2.93584 l -0.0811,-0.0796 c -12.33773,2.07654 -22.7882,3.19749 -39.65754,-10.81437 -13.78873,-11.45585 -19.80786,-14.1865 -19.80786,-14.1865 -6.82197,2.69148 -13.27606,9.14489 -13.27606,9.14489 0,0 -6.46472,6.47003 -9.14888,13.28736 0,0 2.72201,6.01182 14.18583,19.79791 14.01188,16.86868 12.87565,27.31913 10.81373,39.65754 l 0.085,0.0844 c -1.06716,2.34284 -2.03139,4.73414 -2.94115,7.15603 h -0.14148 c -7.25626,10.19345 -13.8518,18.37411 -35.68772,20.39288 -17.85218,1.65087 -24.040636,3.97711 -24.040636,3.97711 C 86,246.87002 86,255.99832 86,255.99832 c 0,0 0,9.1449 2.925226,15.86262 0,0 6.173857,2.32623 24.029354,3.96981 21.83659,2.01944 28.42414,10.21337 35.6917,20.39356 h 0.14213 c 0.90978,2.42719 1.87334,4.81517 2.94116,7.15602 l -0.085,0.0843 c 2.07721,12.33974 3.19751,22.78819 -10.8137,39.65754 -11.45652,13.7894 -14.18983,19.80853 -14.18983,19.80853 2.69546,6.81866 9.14754,13.27673 9.14754,13.27673 0,0 6.46937,6.46539 13.28804,9.14489 0,0 6.00783,-2.71869 19.79788,-14.18252 16.8687,-14.01187 27.32314,-12.87565 39.65689,-10.81635 l 0.085,-0.085 c 2.34151,1.06584 4.73414,2.02674 7.156,2.93982 v 0.1461 c 10.1928,7.25696 18.37346,13.85182 20.39289,35.68909 1.65024,17.85083 3.97312,24.03929 3.97312,24.03929 C 246.86876,426 255.99771,426 255.99771,426 c 0,0 9.1449,0 15.86397,-2.92522 0,0 2.32687,-6.17451 3.96846,-24.03201 2.01944,-21.83724 10.21272,-28.42547 20.39357,-35.68905 v -0.14611 c 2.42717,-0.9131 4.81517,-1.87332 7.15535,-2.93983 l 0.085,0.085 c 12.33773,-2.07321 22.78754,-3.1955 39.65755,10.81637 13.7907,11.45718 19.81051,14.19049 19.81051,14.19049 6.81799,-2.69613 13.27473,-9.15221 13.27473,-9.15221 0,0 6.4634,-6.46538 9.15153,-13.28404 0,0 -2.72533,-6.01247 -14.18782,-19.80122 -14.01452,-16.86869 -12.88495,-27.3178 -10.81903,-39.65754 l -0.0844,-0.0843 c 1.06584,-2.34085 2.03471,-4.72883 2.93985,-7.15602 h 0.14607 c 7.25697,-10.18749 13.85116,-18.37412 35.68841,-20.39356 17.85085,-1.65021 24.03998,-3.96981 24.03998,-3.96981 2.91859,-6.72501 2.91859,-15.86262 2.91859,-15.86262 0,0 -6.7e-4,-9.14491 -2.92589,-15.86394 z m -167.0765,95.37096 c -43.91158,0 -79.50767,-35.59544 -79.50767,-79.50701 0,-43.91159 35.59609,-79.50702 79.50767,-79.50702 43.91091,0 79.50702,35.59543 79.50702,79.50702 0,43.91157 -35.59611,79.50701 -79.50702,79.50701 z"
     id="path3"
     inkscape:connector-curvature="0"
     style="fill:#ffffff;fill-opacity:1;stroke-width:0.68077636" /></svg>